<svg xmlns="http://www.w3.org/2000/svg" viewBox="0 0 560 420" role="img" aria-label="笛子插画">
  <defs>
    <linearGradient id="bg" x1="0" y1="0" x2="1" y2="1"><stop stop-color="#9ec88f"/><stop offset="1" stop-color="#2f5b3b"/></linearGradient>
    <linearGradient id="wood" x1="0" y1="0" x2="1" y2="1"><stop stop-color="#9ec88f"/><stop offset=".55" stop-color="#2f5b3b"/><stop offset="1" stop-color="#2b140c"/></linearGradient>
    <filter id="shadow" x="-20%" y="-20%" width="140%" height="140%"><feDropShadow dx="0" dy="18" stdDeviation="18" flood-color="#000" flood-opacity=".35"/></filter>
  </defs>
  <rect width="560" height="420" rx="42" fill="#1b100b"/>
  <circle cx="86" cy="82" r="130" fill="url(#bg)" opacity=".22"/>
  <circle cx="460" cy="338" r="160" fill="url(#bg)" opacity=".18"/>
  <g filter="url(#shadow)"><g transform="translate(72 210) rotate(-15)"><rect x="0" y="0" width="430" height="44" rx="22" fill="url(#wood)" stroke="#fff0c7" stroke-width="4"/><g fill="#16351f"><circle cx="130" cy="22" r="9"/><circle cx="173" cy="22" r="9"/><circle cx="216" cy="22" r="9"/><circle cx="259" cy="22" r="9"/><circle cx="302" cy="22" r="9"/><circle cx="345" cy="22" r="9"/><circle cx="72" cy="22" r="11"/><circle cx="388" cy="22" r="7"/></g><path d="M95 -12 V56 M365 -12 V56" stroke="#fff0c7" stroke-width="5" opacity=".7"/></g><path d="M180 96 C230 70 282 70 332 96" fill="none" stroke="#f7d797" stroke-width="8" stroke-linecap="round" opacity=".55"/></g>
  <text x="42" y="62" fill="#fff4dc" font-size="34" font-family="serif" font-weight="700">笛子</text>
</svg>