<svg xmlns="http://www.w3.org/2000/svg" viewBox="0 0 560 420" role="img" aria-label="二胡插画">
  <defs>
    <linearGradient id="bg" x1="0" y1="0" x2="1" y2="1"><stop stop-color="#c46b4f"/><stop offset="1" stop-color="#3d1f1b"/></linearGradient>
    <linearGradient id="wood" x1="0" y1="0" x2="1" y2="1"><stop stop-color="#c46b4f"/><stop offset=".55" stop-color="#3d1f1b"/><stop offset="1" stop-color="#2b140c"/></linearGradient>
    <filter id="shadow" x="-20%" y="-20%" width="140%" height="140%"><feDropShadow dx="0" dy="18" stdDeviation="18" flood-color="#000" flood-opacity=".35"/></filter>
  </defs>
  <rect width="560" height="420" rx="42" fill="#1b100b"/>
  <circle cx="86" cy="82" r="130" fill="url(#bg)" opacity=".22"/>
  <circle cx="460" cy="338" r="160" fill="url(#bg)" opacity=".18"/>
  <g filter="url(#shadow)"><g transform="translate(235 40)"><path d="M30 28 L48 350" stroke="#fff0c7" stroke-width="12" stroke-linecap="round"/><path d="M82 42 C132 116 132 250 78 344" fill="none" stroke="#f1be6d" stroke-width="7"/><path d="M2 28 H70" stroke="#fff0c7" stroke-width="14" stroke-linecap="round"/><path d="M9 70 H75" stroke="#fff0c7" stroke-width="10" stroke-linecap="round"/><g stroke="#fff3d0" stroke-width="2"><path d="M24 30 L36 342"/><path d="M44 30 L52 342"/></g><path d="M8 312 C28 290 68 292 92 314 L84 372 C58 386 26 383 2 370Z" fill="url(#wood)" stroke="#fff0c7" stroke-width="4"/><circle cx="45" cy="335" r="31" fill="#f3d7a0" opacity=".75"/></g></g>
  <text x="42" y="62" fill="#fff4dc" font-size="34" font-family="serif" font-weight="700">二胡</text>
</svg>