<svg xmlns="http://www.w3.org/2000/svg" viewBox="0 0 560 420" role="img" aria-label="古筝插画">
  <defs>
    <linearGradient id="bg" x1="0" y1="0" x2="1" y2="1"><stop stop-color="#f7d797"/><stop offset="1" stop-color="#b86f2d"/></linearGradient>
    <linearGradient id="wood" x1="0" y1="0" x2="1" y2="1"><stop stop-color="#f7d797"/><stop offset=".55" stop-color="#b86f2d"/><stop offset="1" stop-color="#2b140c"/></linearGradient>
    <filter id="shadow" x="-20%" y="-20%" width="140%" height="140%"><feDropShadow dx="0" dy="18" stdDeviation="18" flood-color="#000" flood-opacity=".35"/></filter>
  </defs>
  <rect width="560" height="420" rx="42" fill="#1b100b"/>
  <circle cx="86" cy="82" r="130" fill="url(#bg)" opacity=".22"/>
  <circle cx="460" cy="338" r="160" fill="url(#bg)" opacity=".18"/>
  <g filter="url(#shadow)"><g transform="translate(85 170) rotate(-7)"><path d="M35 65 C130 22 285 25 402 64 C370 104 108 110 35 65Z" fill="url(#wood)" stroke="#fff0c7" stroke-width="4"/><path d="M70 64 C165 46 285 48 365 65" fill="none" stroke="#3a1c11" stroke-width="5" opacity=".45"/><g stroke="#fff3d0" stroke-width="2" opacity=".9"><path d="M75 58 L92 82"/><path d="M100 58 L115 82"/><path d="M125 58 L138 82"/><path d="M150 58 L161 82"/><path d="M175 58 L184 82"/><path d="M200 58 L207 82"/><path d="M225 58 L230 82"/><path d="M250 58 L253 82"/><path d="M275 58 L276 82"/><path d="M300 58 L299 82"/><path d="M325 58 L322 82"/></g><g fill="#2b140c"><rect x="112" y="54" width="6" height="38" rx="3"/><rect x="137" y="54" width="6" height="38" rx="3"/><rect x="162" y="54" width="6" height="38" rx="3"/><rect x="187" y="54" width="6" height="38" rx="3"/><rect x="212" y="54" width="6" height="38" rx="3"/><rect x="237" y="54" width="6" height="38" rx="3"/><rect x="262" y="54" width="6" height="38" rx="3"/><rect x="287" y="54" width="6" height="38" rx="3"/></g></g></g>
  <text x="42" y="62" fill="#fff4dc" font-size="34" font-family="serif" font-weight="700">古筝</text>
</svg>