<svg xmlns="http://www.w3.org/2000/svg" viewBox="0 0 560 420" role="img" aria-label="琵琶插画">
  <defs>
    <linearGradient id="bg" x1="0" y1="0" x2="1" y2="1"><stop stop-color="#d4a373"/><stop offset="1" stop-color="#6f3d2e"/></linearGradient>
    <linearGradient id="wood" x1="0" y1="0" x2="1" y2="1"><stop stop-color="#d4a373"/><stop offset=".55" stop-color="#6f3d2e"/><stop offset="1" stop-color="#2b140c"/></linearGradient>
    <filter id="shadow" x="-20%" y="-20%" width="140%" height="140%"><feDropShadow dx="0" dy="18" stdDeviation="18" flood-color="#000" flood-opacity=".35"/></filter>
  </defs>
  <rect width="560" height="420" rx="42" fill="#1b100b"/>
  <circle cx="86" cy="82" r="130" fill="url(#bg)" opacity=".22"/>
  <circle cx="460" cy="338" r="160" fill="url(#bg)" opacity=".18"/>
  <g filter="url(#shadow)"><g transform="translate(185 58)"><path d="M70 22 C118 40 122 104 100 150 C160 202 136 332 62 360 C-18 322 -32 205 20 150 C-4 98 18 40 70 22Z" fill="url(#wood)" stroke="#fff0c7" stroke-width="4"/><path d="M69 20 C72 0 86 -18 103 -28" stroke="#fff0c7" stroke-width="16" stroke-linecap="round"/><g stroke="#35170d" stroke-width="3" opacity=".5"><path d="M34 132 H108"/><path d="M23 168 H119"/><path d="M16 210 H125"/><path d="M21 255 H119"/></g><g stroke="#fff3d0" stroke-width="2"><path d="M48 20 C56 120 56 230 50 340"/><path d="M62 21 C66 120 66 230 62 342"/><path d="M76 21 C76 120 76 230 78 342"/><path d="M90 28 C86 126 86 230 94 340"/></g><rect x="36" y="318" width="68" height="18" rx="9" fill="#2d140c" opacity=".65"/></g></g>
  <text x="42" y="62" fill="#fff4dc" font-size="34" font-family="serif" font-weight="700">琵琶</text>
</svg>