<svg xmlns="http://www.w3.org/2000/svg" viewBox="0 0 560 420" role="img" aria-label="唢呐插画">
  <defs>
    <linearGradient id="bg" x1="0" y1="0" x2="1" y2="1"><stop stop-color="#ef7d57"/><stop offset="1" stop-color="#8f1e1b"/></linearGradient>
    <linearGradient id="wood" x1="0" y1="0" x2="1" y2="1"><stop stop-color="#ef7d57"/><stop offset=".55" stop-color="#8f1e1b"/><stop offset="1" stop-color="#2b140c"/></linearGradient>
    <filter id="shadow" x="-20%" y="-20%" width="140%" height="140%"><feDropShadow dx="0" dy="18" stdDeviation="18" flood-color="#000" flood-opacity=".35"/></filter>
  </defs>
  <rect width="560" height="420" rx="42" fill="#1b100b"/>
  <circle cx="86" cy="82" r="130" fill="url(#bg)" opacity=".22"/>
  <circle cx="460" cy="338" r="160" fill="url(#bg)" opacity=".18"/>
  <g filter="url(#shadow)"><g transform="translate(185 62)"><path d="M72 38 C90 82 94 170 84 250 H42 C32 170 36 82 54 38Z" fill="url(#wood)" stroke="#fff0c7" stroke-width="4"/><path d="M47 8 H89 L80 45 H56Z" fill="#f4c772" stroke="#fff0c7" stroke-width="3"/><g fill="#32160c" opacity=".75"><circle cx="63" cy="88" r="7"/><circle cx="63" cy="116" r="7"/><circle cx="63" cy="144" r="7"/><circle cx="63" cy="172" r="7"/><circle cx="63" cy="200" r="7"/></g><path d="M18 250 C48 224 86 224 112 250 C145 284 135 340 64 363 C-8 340 -18 284 18 250Z" fill="url(#wood)" stroke="#fff0c7" stroke-width="4"/><ellipse cx="64" cy="294" rx="54" ry="34" fill="#f7d797" opacity=".35"/></g></g>
  <text x="42" y="62" fill="#fff4dc" font-size="34" font-family="serif" font-weight="700">唢呐</text>
</svg>