<svg xmlns="http://www.w3.org/2000/svg" viewBox="0 0 560 420" role="img" aria-label="扬琴插画">
  <defs>
    <linearGradient id="bg" x1="0" y1="0" x2="1" y2="1"><stop stop-color="#f1c27d"/><stop offset="1" stop-color="#9a5d1f"/></linearGradient>
    <linearGradient id="wood" x1="0" y1="0" x2="1" y2="1"><stop stop-color="#f1c27d"/><stop offset=".55" stop-color="#9a5d1f"/><stop offset="1" stop-color="#2b140c"/></linearGradient>
    <filter id="shadow" x="-20%" y="-20%" width="140%" height="140%"><feDropShadow dx="0" dy="18" stdDeviation="18" flood-color="#000" flood-opacity=".35"/></filter>
  </defs>
  <rect width="560" height="420" rx="42" fill="#1b100b"/>
  <circle cx="86" cy="82" r="130" fill="url(#bg)" opacity=".22"/>
  <circle cx="460" cy="338" r="160" fill="url(#bg)" opacity=".18"/>
  <g filter="url(#shadow)"><g transform="translate(70 150)"><path d="M55 15 H395 L455 175 H0Z" fill="url(#wood)" stroke="#fff0c7" stroke-width="4"/><g stroke="#fff3d0" stroke-width="2" opacity=".9"><path d="M45 26 L20 158"/><path d="M73 26 L53 158"/><path d="M101 26 L86 158"/><path d="M129 26 L119 158"/><path d="M157 26 L152 158"/><path d="M185 26 L185 158"/><path d="M213 26 L218 158"/><path d="M241 26 L251 158"/><path d="M269 26 L284 158"/><path d="M297 26 L317 158"/><path d="M325 26 L350 158"/><path d="M353 26 L383 158"/><path d="M381 26 L416 158"/></g><g fill="#32160c" opacity=".68"><rect x="75" y="42" width="8" height="105" rx="4" transform="rotate(8 75 42)"/><rect x="127" y="42" width="8" height="105" rx="4" transform="rotate(8 127 42)"/><rect x="179" y="42" width="8" height="105" rx="4" transform="rotate(8 179 42)"/><rect x="231" y="42" width="8" height="105" rx="4" transform="rotate(8 231 42)"/><rect x="283" y="42" width="8" height="105" rx="4" transform="rotate(8 283 42)"/><rect x="335" y="42" width="8" height="105" rx="4" transform="rotate(8 335 42)"/></g><path d="M110 -8 L245 92" stroke="#fff0c7" stroke-width="8" stroke-linecap="round"/><path d="M356 -8 L225 92" stroke="#fff0c7" stroke-width="8" stroke-linecap="round"/></g></g>
  <text x="42" y="62" fill="#fff4dc" font-size="34" font-family="serif" font-weight="700">扬琴</text>
</svg>